<svg id="visual" viewBox="0 0 900 600" width="900" height="600" xmlns="http://www.w3.org/2000/svg" xmlns:xlink="http://www.w3.org/1999/xlink" version="1.1"><rect x="0" y="0" width="900" height="600" fill="#ffffff"></rect><g transform="translate(848.690532978113 673.4194836304689)"><path d="M441.8 -502.2C530.1 -452.5 530 -272.9 533.7 -114.4C537.4 44.1 545 181.5 474.3 245.6C403.6 309.6 254.7 300.2 137.3 316.5C19.9 332.9 -66 375.1 -161.3 371.4C-256.5 367.8 -361.2 318.4 -398.3 237.9C-435.4 157.3 -404.8 45.7 -411.7 -99.9C-418.5 -245.5 -462.8 -424.9 -400.5 -479.3C-338.1 -533.6 -169.1 -462.8 3.9 -467.4C176.8 -472 353.5 -552 441.8 -502.2" fill="#0066FF"></path></g></svg>